<svg width="185" height="22" viewBox="0 0 185 22" fill="none" xmlns="http://www.w3.org/2000/svg">
<path d="M20.538 4.4L16.416 17H13.284L10.512 8.468L7.65 17H4.536L0.396 4.4H3.42L6.264 13.256L9.234 4.4H11.934L14.814 13.328L17.748 4.4H20.538ZM26.1259 4.4H29.0419V17H26.1259V4.4ZM47.5481 4.4V17H45.1541L38.8721 9.35V17H35.9921V4.4H38.4041L44.6681 12.05V4.4H47.5481ZM54.4892 4.4H60.2132C61.5812 4.4 62.7872 4.664 63.8312 5.192C64.8872 5.708 65.7032 6.44 66.2792 7.388C66.8672 8.336 67.1612 9.44 67.1612 10.7C67.1612 11.96 66.8672 13.064 66.2792 14.012C65.7032 14.96 64.8872 15.698 63.8312 16.226C62.7872 16.742 61.5812 17 60.2132 17H54.4892V4.4ZM60.0692 14.606C61.3292 14.606 62.3312 14.258 63.0752 13.562C63.8312 12.854 64.2092 11.9 64.2092 10.7C64.2092 9.5 63.8312 8.552 63.0752 7.856C62.3312 7.148 61.3292 6.794 60.0692 6.794H57.4052V14.606H60.0692Z" fill="#6B6B6B"/>
<path d="M75.2103 5.552V10.502H81.7263V11.654H75.2103V17H73.8783V4.4H82.5183V5.552H75.2103ZM89.229 4.4H90.561V15.848H97.617V17H89.229V4.4ZM109.05 17.108C107.802 17.108 106.668 16.832 105.648 16.28C104.64 15.716 103.848 14.948 103.272 13.976C102.708 13.004 102.426 11.912 102.426 10.7C102.426 9.488 102.708 8.396 103.272 7.424C103.848 6.452 104.64 5.69 105.648 5.138C106.668 4.574 107.802 4.292 109.05 4.292C110.298 4.292 111.42 4.568 112.416 5.12C113.424 5.672 114.216 6.44 114.792 7.424C115.368 8.396 115.656 9.488 115.656 10.7C115.656 11.912 115.368 13.01 114.792 13.994C114.216 14.966 113.424 15.728 112.416 16.28C111.42 16.832 110.298 17.108 109.05 17.108ZM109.05 15.92C110.046 15.92 110.946 15.698 111.75 15.254C112.554 14.798 113.184 14.174 113.64 13.382C114.096 12.578 114.324 11.684 114.324 10.7C114.324 9.716 114.096 8.828 113.64 8.036C113.184 7.232 112.554 6.608 111.75 6.164C110.946 5.708 110.046 5.48 109.05 5.48C108.054 5.48 107.148 5.708 106.332 6.164C105.528 6.608 104.892 7.232 104.424 8.036C103.968 8.828 103.74 9.716 103.74 10.7C103.74 11.684 103.968 12.578 104.424 13.382C104.892 14.174 105.528 14.798 106.332 15.254C107.148 15.698 108.054 15.92 109.05 15.92ZM139.513 4.4L135.265 17H133.861L130.171 6.254L126.463 17H125.077L120.829 4.4H122.197L125.833 15.236L129.595 4.4H130.837L134.545 15.29L138.235 4.4H139.513Z" fill="#301880"/>
<circle cx="151" cy="11" r="5" fill="#6B6B6B"/>
<circle cx="168" cy="11" r="5" fill="#6B6B6B"/>
</svg>
